TITLE ""
FILE "Disc2Track36.mp3" MP3
  TRACK 01 AUDIO
    TITLE "Disc2Track36_01"
    INDEX 01 00:00:00
  TRACK 02 AUDIO
    TITLE "Disc2Track36_02"
    INDEX 01 00:01:12
  TRACK 03 AUDIO
    TITLE "Disc2Track36_03"
    INDEX 01 00:05:58
  TRACK 04 AUDIO
    TITLE "Disc2Track36_04"
    INDEX 01 00:07:08
  TRACK 05 AUDIO
    TITLE "Disc2Track36_05"
    INDEX 01 00:09:03
  TRACK 06 AUDIO
    TITLE "Disc2Track36_06"
    INDEX 01 00:09:35
  TRACK 07 AUDIO
    TITLE "Disc2Track36_07"
    INDEX 01 00:10:64
  TRACK 08 AUDIO
    TITLE "Disc2Track36_08"
    INDEX 01 00:13:03
  TRACK 09 AUDIO
    TITLE "Disc2Track36_09"
    INDEX 01 00:14:32
  TRACK 10 AUDIO
    TITLE "Disc2Track36_10"
    INDEX 01 00:14:69
  TRACK 11 AUDIO
    TITLE "Disc2Track36_11"
    INDEX 01 00:16:17
  TRACK 12 AUDIO
    TITLE "Disc2Track36_12"
    INDEX 01 00:18:53
  TRACK 13 AUDIO
    TITLE "Disc2Track36_13"
    INDEX 01 00:20:01
  TRACK 14 AUDIO
    TITLE "Disc2Track36_14"
    INDEX 01 00:21:65
  TRACK 15 AUDIO
    TITLE "Disc2Track36_15"
    INDEX 01 00:22:22
  TRACK 16 AUDIO
    TITLE "Disc2Track36_16"
    INDEX 01 00:23:41
  TRACK 17 AUDIO
    TITLE "Disc2Track36_17"
    INDEX 01 00:26:14
  TRACK 18 AUDIO
    TITLE "Disc2Track36_18"
    INDEX 01 00:27:31
  TRACK 19 AUDIO
    TITLE "Disc2Track36_19"
    INDEX 01 00:30:27
  TRACK 20 AUDIO
    TITLE "Disc2Track36_20"
    INDEX 01 00:30:58
  TRACK 21 AUDIO
    TITLE "Disc2Track36_21"
    INDEX 01 00:32:08
  TRACK 22 AUDIO
    TITLE "Disc2Track36_22"
    INDEX 01 00:33:16
  TRACK 23 AUDIO
    TITLE "Disc2Track36_23"
    INDEX 01 00:34:43
  TRACK 24 AUDIO
    TITLE "Disc2Track36_24"
    INDEX 01 00:35:03
  TRACK 25 AUDIO
    TITLE "Disc2Track36_25"
    INDEX 01 00:36:32
  TRACK 26 AUDIO
    TITLE "Disc2Track36_26"
    INDEX 01 00:37:33
  TRACK 27 AUDIO
    TITLE "Disc2Track36_27"
    INDEX 01 00:38:60
  TRACK 28 AUDIO
    TITLE "Disc2Track36_28"
    INDEX 01 00:39:24
  TRACK 29 AUDIO
    TITLE "Disc2Track36_29"
    INDEX 01 00:40:37
  TRACK 30 AUDIO
    TITLE "Disc2Track36_30"
    INDEX 01 00:45:70
  TRACK 31 AUDIO
    TITLE "Disc2Track36_31"
    INDEX 01 00:47:08
  TRACK 32 AUDIO
    TITLE "Disc2Track36_32"
    INDEX 01 00:51:55
  TRACK 33 AUDIO
    TITLE "Disc2Track36_33"
    INDEX 01 00:52:11
  TRACK 34 AUDIO
    TITLE "Disc2Track36_34"
    INDEX 01 00:53:24
  TRACK 35 AUDIO
    TITLE "Disc2Track36_35"
    INDEX 01 00:54:31
  TRACK 36 AUDIO
    TITLE "Disc2Track36_36"
    INDEX 01 00:55:45
  TRACK 37 AUDIO
    TITLE "Disc2Track36_37"
    INDEX 01 00:57:46
  TRACK 38 AUDIO
    TITLE "Disc2Track36_38"
    INDEX 01 00:58:00
  TRACK 39 AUDIO
    TITLE "Disc2Track36_39"
    INDEX 01 00:59:19
  TRACK 40 AUDIO
    TITLE "Disc2Track36_40"
    INDEX 01 01:02:07
  TRACK 41 AUDIO
    TITLE "Disc2Track36_41"
    INDEX 01 01:03:27
  TRACK 42 AUDIO
    TITLE "Disc2Track36_42"
    INDEX 01 01:07:54
  TRACK 43 AUDIO
    TITLE "Disc2Track36_43"
    INDEX 01 01:08:10
  TRACK 44 AUDIO
    TITLE "Disc2Track36_44"
    INDEX 01 01:09:31
  TRACK 45 AUDIO
    TITLE "Disc2Track36_45"
    INDEX 01 01:10:31
  TRACK 46 AUDIO
    TITLE "Disc2Track36_46"
    INDEX 01 01:11:48
  TRACK 47 AUDIO
    TITLE "Disc2Track36_47"
    INDEX 01 01:13:45
